<svg xmlns="http://www.w3.org/2000/svg" xmlns:xlink="http://www.w3.org/1999/xlink" x="0px" y="0px" viewBox="0 0 291.5 81.6" style="enable-background:new 0 0 291.5 81.6;" xml:space="preserve"><style type="text/css">	.st0{fill:#727271;}	.st1{fill:#F2852E;}	.st2{fill:#727270;}	.st3{fill:#F3862F;}	.st4{fill:#F3862F;stroke:#F3862F;stroke-width:1.2392;stroke-miterlimit:10;}</style><g id="Layer_1"></g><g id="Layer_2">	<g>		<path class="st1" d="M127.4,68c-1-1.5-2.6-2.4-4.8-2.7c-0.1,0-0.2-0.1-0.4-0.1l0,0c0,0,0,0,0,0c-0.3,0-0.7,0-1.1,0c0,0,0,0-0.1,0    l0,0.1c-0.7,0-1.8,0-3.3,0h-2.1c-0.3,0-0.5,0-0.8,0c-1.4,0-2.6,0-3.3-0.6c-0.4-0.4-0.6-0.9-0.6-1.4c0-0.6,0.2-1,0.6-1.4    c0.3-0.3,0.8-0.5,1.5-0.6c0.8-0.1,1.6-0.1,2.4-0.1c1.2,0,2,0,2.2,0v0c2.2,0,3.8,0,4.7,0c1.2,0,2.1,0.9,2.1,2c0,0.1,0,0.2,0,0.3    l-0.2,0.9h3.2l0.1-0.6c0-0.2,0-0.4,0-0.5c0-1.4-0.5-2.6-1.5-3.6c-1-1-2.2-1.5-3.6-1.6l-1.9,0c-1.1,0-2,0-2.6,0c-1.3,0-2.7,0-4.4,0    l-1,0c-1.4,0-2.6,0.6-3.6,1.5c-1,1-1.5,2.2-1.5,3.6c0,1.4,0.5,2.6,1.6,3.6c0.9,0.9,2.1,1.4,3.6,1.6h9.3c2,0,2.9,0.9,2.9,2.9    c0,0.8-0.2,1.4-0.8,2c-0.3,0.4-0.9,0.6-1.8,0.8c-0.8,0.1-1.7,0.2-2.8,0.1c-1.6,0-2.3-0.1-2.6-0.1v0c-1.8,0-3.1,0-4,0    c-1.4,0-2.5-1.1-2.6-2.5l0-0.7h-3.1l0.1,0.8c0.1,1.2,0.5,2.3,1.2,3.3c1,1.3,2.4,2.1,3.9,2.2c2,0.1,3.4,0.2,4.7,0.2    c2.1,0,4-0.1,5.8-0.2c1.5-0.1,2.8-0.8,3.8-2c0.9-1.1,1.4-2.4,1.4-4C128.4,70.1,128.1,69,127.4,68z"></path>		<path class="st1" d="M167.3,63.6c-0.1-1.3-0.6-2.4-1.6-3.4c-1-1-2.1-1.5-3.5-1.6c-1.8-0.1-3.4-0.2-4.9-0.2c-1,0-2.5,0.1-4.3,0.2    c-1.5,0.1-2.7,0.7-3.6,1.8c-1-1.1-2.2-1.7-3.6-1.8c-1.8-0.1-3.5-0.2-4.9-0.2c-1.2,0-2.6,0.1-4.3,0.2c-0.8,0.1-1.5,0.3-2.2,0.7    v-0.8h-3l0,12.6c0,3.2,0,5,0,5.5l0,0.7h3v-13c0-1.6,1.1-2.6,3.1-2.8l0,0c0,0,0,0,0.1,0c0.6,0,1.5,0,3,0h0.2c1.9,0,3.4,0,4.4,0    c0.7,0,1.4,0.3,1.9,0.8c0.5,0.5,0.8,1.1,0.8,1.9v13h3.1l0-13c0-1.6,1.1-2.6,3.1-2.8l0,0c0,0,0,0,0.1,0c0.6,0,1.5,0,3,0h0.2    c1.9,0,3.3,0,4.3,0c0.7,0,1.4,0.3,1.9,0.8c0.5,0.5,0.8,1.1,0.8,1.9v13h3.1l0-9.4C167.4,66.1,167.4,64.7,167.3,63.6z"></path>		<path class="st1" d="M191.2,64c-0.2-1.5-0.7-2.7-1.5-3.6c-0.9-1.1-2.1-1.7-3.6-1.8c-1.8-0.1-3.7-0.2-5.9-0.2    c-1.3,0-2.8,0.1-4.6,0.2c-1.5,0.1-2.7,0.7-3.6,1.8c-0.9,1-1.4,2.2-1.5,3.6c0,0.2,0,0.8,0,3.9l0,9.4h3.1v-5.5h14.6v5.5h3.1l0-0.7    c0-0.8,0.1-3.6,0.1-8.7C191.3,65.9,191.2,64.5,191.2,64z M188.1,64.3v4.3h-14.6v-4.3c0-1.5,1.2-2.7,2.6-2.7c1,0,2.4,0,3.8,0h0.2    c2.5,0,4.3,0,5.3,0C186.9,61.6,188.1,62.8,188.1,64.3z"></path>		<path class="st1" d="M208.9,70.3l0.5,0c1.5-0.1,2.8-0.8,3.8-2c0.9-1.1,1.4-2.4,1.4-4c0-1.3-0.3-2.3-0.9-3.3    c-1-1.6-2.5-2.5-4.3-2.6l-0.2,0c-0.7,0-1.3-0.1-1.9-0.1l-13.3,0.1v18.8h3v-6.9h7.8l6.9,6.9h4.2L208.9,70.3z M205.5,67.2h-8.6v-5.7    h6.6c0.5,0,1.2,0,2.3,0c1,0,1.8-0.1,2.2,0h0.9c0.6,0,1.1,0.2,1.5,0.5c0.7,0.6,1.1,1.3,1.1,2.4c0,0.8-0.2,1.5-0.8,2    c-0.5,0.6-1.1,0.8-1.8,0.8h-2.1c-0.4,0-0.6,0-1,0H205.5z"></path>		<polygon class="st1" points="216.5,58.4 216.5,61.3 225.4,61.3 225.4,77.2 228.3,77.2 228.3,61.3 237,61.3 237,58.4   "></polygon>		<path class="st2" d="M38.4,46.2l-12.2-9.1V20H16.2v26.2H4.1V11.4h56.4v34.9h-12V20H38.4V46.2z"></path>		<path class="st2" d="M77.3,46.2H62.6l35.3-34.9h16.2v34.9H98l-7.4-8.5h11.5V21.8L77.3,46.2z"></path>		<path class="st2" d="M139.4,20.6l9.9-9.3h13.4l-17.4,17.3l17.4,17.6h-13.4l-9.9-9.3l-9.8,9.3h-13.4l17.4-17.6l-17.4-17.3h13.4    L139.4,20.6z"></path>		<path class="st2" d="M164.7,46.2V11.4h12.2v43.9L164.7,46.2z"></path>		<path class="st2" d="M216.2,11.4c0.2,0,0.8,0.4,1.6,1.1c0.9,0.7,1.8,1.5,2.8,2.5c1,0.9,2,1.9,2.9,2.9c0.9,1,1.6,1.7,1.9,2.2h-33.1    v4.5H226v21.8h-35.9c-0.3,0-0.8-0.4-1.7-1.1c-0.9-0.7-1.8-1.5-2.8-2.5c-1-0.9-2-1.9-2.9-2.9c-0.9-1-1.6-1.7-1.9-2.2h33.1V33h-33.5    V11.4H216.2z"></path>		<g>			<rect x="253" y="75.5" class="st3" width="12.4" height="2.7"></rect>			<rect x="251.7" y="71.7" class="st3" width="15.1" height="2.7"></rect>			<rect x="250.4" y="67.9" class="st3" width="17.7" height="2.7"></rect>			<path class="st3" d="M259.3,16.1c-1.3,0-2.7,0.5-3.7,1.4c-1,0.9-1.5,2.2-1.5,3.5c0,1.3,0.6,2.6,1.5,3.6c1,0.9,2.2,1.5,3.5,1.5     c0,0,0.1,0,0.1,0c2.7-0.1,4.9-2.3,4.9-5C264.2,18.3,262,16.1,259.3,16.1z"></path>			<path class="st0" d="M270.2,63.8L270.2,63.8c-0.2,0.7-0.4,1.6-0.6,2.4h-4.2l0,0c-2.1,0-4.1,0-6.2,0c-2.6,0-5.2,0-7.7,0h-2.7     l-0.7-2.7c-0.5-2.1-1.4-4.1-2.5-5.9c-0.7-1-1.5-1.9-2.5-2.6c-7.8-5.3-12.3-14.2-12.3-23.6c0.1-7.5,3.1-14.6,8.5-19.9     c5.3-5.3,12.4-8.1,19.8-8.1c0.1,0,0.2,0,0.3,0c15.4,0.2,28,12.8,28,28.3c0,3.1-0.5,6.1-1.5,9c0,0.2-0.1,0.5-0.2,0.7     c-1.6,4.4-4.4,8.3-8.1,11.5l5.1,4.9l-7.5,7.2l-2.5-2.4L254,44.5l0-16.2h10.4v11.8l6.4,6.2c4.4-3.8,7-9.5,6.8-15     c-0.4-9.7-8.3-17.6-18-17.8c-6.1-0.2-11.8,2.7-15.5,7.8c-1.8,2.5-3,5.6-3.3,8.7c-1,9.8,6.4,18.3,15.3,20.2L270.2,63.8z"></path>		</g>	</g></g><g id="Layer_3"></g></svg>